<?xml version="1.0" standalone="no"?>
<!DOCTYPE svg PUBLIC "-//W3C//DTD SVG 20010904//EN"
 "http://www.w3.org/TR/2001/REC-SVG-20010904/DTD/svg10.dtd">
<svg version="1.0" xmlns="http://www.w3.org/2000/svg"
 width="750.000000pt" height="750.000000pt" viewBox="0 0 750.000000 750.000000"
 preserveAspectRatio="xMidYMid meet">
<metadata>
Created by potrace 1.11, written by Peter Selinger 2001-2013
</metadata>
<g transform="translate(0.000000,750.000000) scale(0.100000,-0.100000)"
fill="#000000" stroke="none">
<path d="M1525 6665 c-101 -17 -186 -41 -273 -76 -227 -90 -427 -267 -572
-503 -49 -81 -104 -191 -121 -244 -6 -20 -15 -42 -20 -48 -5 -6 -10 -19 -12
-30 -2 -10 -13 -51 -25 -90 -19 -63 -49 -192 -66 -289 -15 -81 -20 -177 -21
-350 0 -162 10 -338 20 -355 2 -3 6 -30 10 -60 3 -30 18 -107 31 -170 14 -63
27 -123 29 -132 45 -209 189 -568 339 -843 82 -151 306 -501 335 -525 4 -3 31
-39 61 -80 30 -41 57 -77 60 -80 3 -3 33 -39 67 -80 33 -41 71 -86 84 -101 13
-14 49 -54 79 -89 107 -126 458 -471 610 -600 36 -30 70 -60 75 -66 12 -13
292 -239 385 -310 134 -103 353 -257 516 -363 93 -61 174 -115 181 -121 7 -5
14 -10 16 -10 3 0 54 -30 113 -67 116 -70 127 -77 245 -142 l77 -42 156 91
c940 543 1766 1235 2309 1933 326 419 555 831 700 1257 41 120 78 251 92 321
61 307 73 430 70 674 -2 110 -5 209 -8 220 -2 11 -8 43 -11 70 -20 141 -40
228 -87 369 -97 292 -248 523 -449 687 -71 57 -117 89 -129 89 -5 0 -11 4 -13
8 -5 14 -150 80 -223 102 -132 40 -210 52 -360 56 -153 4 -295 -10 -420 -41
-33 -8 -69 -17 -80 -19 -41 -9 -217 -77 -297 -115 -359 -173 -740 -494 -1154
-971 -12 -14 -39 -45 -61 -68 l-39 -44 -99 113 c-582 661 -1031 986 -1525
1103 -60 14 -83 19 -165 32 -66 11 -363 11 -430 -1z m3200 -2053 c-46 -208
-146 -397 -291 -554 -53 -57 -142 -133 -284 -240 -152 -114 -158 -121 -174
-204 -19 -101 -48 -148 -155 -254 -180 -178 -354 -283 -651 -395 -25 -9 -52
-19 -60 -21 -8 -2 -64 -17 -123 -33 -144 -40 -225 -37 -323 10 -87 41 -201
153 -268 264 -27 44 -56 91 -64 104 l-15 25 -18 -23 c-24 -30 -66 -161 -75
-237 -18 -145 3 -328 56 -484 123 -368 398 -661 763 -814 l38 -15 65 62 c127
121 233 165 434 182 190 15 213 18 266 35 34 11 46 30 20 30 -21 0 -101 76
-134 127 -36 58 -60 134 -56 186 6 89 85 187 200 247 97 51 117 81 130 195 26
223 143 376 334 433 72 22 241 32 309 18 14 -3 42 -8 61 -11 93 -15 225 -71
323 -137 127 -86 221 -201 262 -323 26 -77 31 -216 10 -300 -57 -234 -284
-533 -591 -778 -329 -262 -645 -476 -870 -589 l-101 -50 -124 60 c-68 34 -173
90 -232 126 -99 60 -356 231 -417 278 -14 11 -81 60 -150 108 -69 49 -129 93
-135 97 -5 5 -30 24 -55 43 -178 138 -356 331 -472 510 -114 177 -203 402
-223 565 -4 28 -8 61 -11 75 -6 37 -6 187 1 245 39 329 238 627 554 828 97 62
220 124 341 172 97 39 297 100 360 111 19 3 38 8 41 9 3 2 28 7 55 11 27 3 52
8 55 10 3 1 28 6 55 9 27 4 56 8 64 10 8 2 38 7 65 11 28 3 57 7 65 9 14 2 66
10 145 20 492 62 809 159 966 295 24 21 46 34 47 29 2 -5 -4 -44 -13 -87z"/>
</g>
</svg>
